<svg xmlns="http://www.w3.org/2000/svg" viewBox="0 0 400 400" width="70">
  <path d="M0 400h400V292.38L0 362.9zM0 0v108.62l400-70.54V0zM0 350.78l400-70.53V50.2L0 120.74v230.04zM350.38 95.94l4.82 27.34-30.22 5.33 21.82 123.75-34.53 6.09-21.83-123.75-30.21 5.32-4.82-27.34 94.97-16.74zM206.16 118.4c25.52-4.5 42.28 5.45 46.18 27.56 1 5.67 1 10.31.03 15.32l-27.34 5.83c.71-4.16.62-6.97 0-10.49-1.76-9.98-6.95-14.91-14.52-13.57-7.38 1.3-10.87 7.16-9.39 15.57 1.42 8.02 5.53 11.53 16.26 14.07 24.42 5.58 29.45 7.32 37.24 13 9.66 6.97 15.58 17.22 18.16 31.89 5.38 30.52-9.35 51.87-39.46 57.18-27.51 4.85-48.22-7.63-52.39-31.3-.97-5.48-.86-9.53-.04-17.74l29.3-6.38c-.74 5.17-.69 7.79.04 11.9 2.2 12.51 7.86 17.77 17.23 16.12 8.97-1.59 13.09-8.57 11.33-18.54-1.35-7.63-7.57-13.79-16.94-16.78l-20.5-6.67c-18.97-6.13-29.45-17.8-32.63-35.8-4.69-26.6 9.73-46.28 37.44-51.17zm-60.39 13.62l26.64 151.09-34.54 6.09-26.64-151.09 34.54-6.09zm-88.13 15.53L79.46 271.3l41.73-7.35 4.82 27.34-76.26 13.44-26.64-151.09 34.53-6.09z"/>
</svg>
