<svg id="Layer_1" data-name="Layer 1" xmlns="http://www.w3.org/2000/svg" viewBox="0 0 400 400" width="100">

<defs>

<style>.cls-1{fill:#fff;}</style></defs>

<title>list_logo_strip</title>

<polygon points="400 49.71 400 279.76 0 350.29 0 120.25 400 49.71"/>
<path class="cls-1" d="M130,263.62,88.31,271,66.49,147.21,32,153.31,58.6,304.39,134.86,291Z"/>

<path class="cls-1" d="M154.62,131.68l-34.54,6.09,26.64,151.1,34.54-6.1Z"/>

<path class="cls-1" d="M281.63,217.24c-2.58-14.67-8.5-24.92-18.16-31.88-7.79-5.68-12.82-7.43-37.25-13-10.73-2.55-14.83-6.05-16.25-14.07-1.48-8.42,2-14.28,9.39-15.58,7.57-1.34,12.76,3.6,14.52,13.58a27.93,27.93,0,0,1,0,10.48l27.34-5.83a40.07,40.07,0,0,0,0-15.32c-3.9-22.11-20.66-32.06-46.18-27.56-27.71,4.89-42.13,24.57-37.44,51.18,3.17,18,13.65,29.66,32.63,35.8l20.5,6.66c9.37,3,15.59,9.16,16.94,16.79,1.76,10-2.36,16.94-11.33,18.53-9.37,1.66-15-3.6-17.23-16.12a32.16,32.16,0,0,1,0-11.9l-29.3,6.38c-.82,8.22-.93,12.26,0,17.74,4.17,23.68,24.88,36.15,52.39,31.31C272.28,269.12,287,247.76,281.63,217.24Z"/>

<path class="cls-1" d="M364.05,122.94l-4.83-27.33-95,16.74,4.82,27.33,30.21-5.31,21.83,123.75,34.53-6.1L333.83,128.27Z"/>

</svg>